<svg width="60" height="30" viewBox="0 0 60 30" fill="none" xmlns="http://www.w3.org/2000/svg">
<path d="M9.46349 25.4776V4.52273C9.46349 3.96275 9.00953 3.50879 8.44955 3.50879H6.45545C5.89547 3.50879 5.44151 3.96275 5.44151 4.52274V10.2316C5.44151 10.7916 4.98755 11.2456 4.42756 11.2456H1.01395C0.453959 11.2456 0 11.6995 0 12.2595V17.7408C0 18.3008 0.453958 18.7548 1.01395 18.7548H4.42756C4.98755 18.7548 5.44151 19.2087 5.44151 19.7687V25.4776C5.44151 26.0376 5.89547 26.4916 6.45545 26.4916H8.44955C9.00953 26.4916 9.46349 26.0376 9.46349 25.4776Z" fill="#B8FF5F"/>
<path d="M50.0209 25.4776V4.52273C50.0209 3.96275 50.4748 3.50879 51.0348 3.50879H53.0289C53.5889 3.50879 54.0429 3.96275 54.0429 4.52274V10.2316C54.0429 10.7916 54.4968 11.2456 55.0568 11.2456H58.4704C59.0304 11.2456 59.4844 11.6995 59.4844 12.2595V17.7408C59.4844 18.3008 59.0304 18.7548 58.4704 18.7548H55.0568C54.4968 18.7548 54.0429 19.2087 54.0429 19.7687V25.4776C54.0429 26.0376 53.5889 26.4916 53.0289 26.4916H51.0348C50.4748 26.4916 50.0209 26.0376 50.0209 25.4776Z" fill="#B8FF5F"/>
<path d="M16.9435 0.804688H13.1819C12.6219 0.804688 12.168 1.25865 12.168 1.81863V28.1812C12.168 28.7412 12.6219 29.1952 13.1819 29.1952H16.9435C17.5034 29.1952 17.9574 28.7412 17.9574 28.1812V20.1351C17.9574 19.5751 18.4114 19.1211 18.9713 19.1211H40.5147C41.0747 19.1211 41.5287 19.5751 41.5287 20.1351V28.1812C41.5287 28.7412 41.9826 29.1952 42.5426 29.1952H46.3041C46.8641 29.1952 47.3181 28.7412 47.3181 28.1812V1.81863C47.3181 1.25865 46.8641 0.804688 46.3041 0.804688H42.5426C41.9826 0.804688 41.5287 1.25865 41.5287 1.81863V10.3227C41.5287 10.8827 41.0747 11.3366 40.5147 11.3366H18.9713C18.4114 11.3366 17.9574 10.8827 17.9574 10.3227V1.81863C17.9574 1.25865 17.5034 0.804688 16.9435 0.804688Z" fill="#B8FF5F"/>
</svg>
